<mxfile host="app.diagrams.net" modified="2024-07-19T17:18:56.504Z" agent="Mozilla/5.0 (Macintosh; Intel Mac OS X 10_15_7) AppleWebKit/537.36 (KHTML, like Gecko) Chrome/126.0.0.0 Safari/537.36" version="24.7.1" etag="dLPehPsTdcHWJyU1l8vx" type="github">
  <diagram name="PÃ¡gina-1" id="nPSMqCyDaV3BsIFvw6c_">
    <mxGraphModel>
      <root>
        <mxCell id="0" />
        <mxCell id="1" parent="0" />
      </root>
    </mxGraphModel>
  </diagram>
</mxfile>
